<svg xmlns="http://www.w3.org/2000/svg" viewBox="0 0 137 42" preserveAspectRatio="xMinYMin meet">
      <rect id="Background" fill="white" width="137" height="42"/>
      <g id="Defiance">
        <path d="M95.3837,1.2737a1.6544,1.6544,0,0,0-.6814.637,13.7916,13.7916,0,0,0-.641,1.502c0-.6435-.0076-1.1285.0023-1.613.0084-.4073-.1787-.5948-.5834-.5916-.5783.0044-1.1584.0257-1.7345-.0109-.6015-.0383-.8054.1881-.7977.7983.0292,2.3128.0113,4.6268.0111,6.94v1.2265l-.1613.0311c-.1326-.1558-.2706-.3078-.3971-.4686-2.0295-2.5824-4.07-5.156-6.0757-7.757A1.6582,1.6582,0,0,0,82.7615,1.19c-.8514.0613-1.7107.0132-2.5667.0148-.9454.0022-.9585.0033-.9619.9727-.0112,3.1921-.0343,6.3847-.0071,9.5768a9.05,9.05,0,0,1-.7415,4.4605c-.0265.05.0035.1307.007.1952.7536.0186.7706.0378.7477.7781-.0064.2083.006.4172-.01.6244-.0431.5572.1833.79.7633.7737,1.1558-.0312,2.3142-.0394,3.4693.0033.6576.0246.8963-.187.8862-.8623-.0327-2.1975-.012-4.3955-.0118-6.593V9.0248c.279.3166.4336.4752.5692.6485,1.8654,2.3878,3.8043,4.7236,5.5608,7.189.9258,1.2991,1.92,2.028,3.54,1.724a5.828,5.828,0,0,1,1.0393-.0093c.9713-.0033.9751-.0033.9754-.9536q.002-7.7375,0-15.4759c0-.1619-.0011-.3237-.011-.4855C95.9839,1.24,95.6871,1.1283,95.3837,1.2737Z"/>
        <path d="M9.54,1.341c-2.5749-.1974-5.1725-.0935-7.76-.14-.5417-.01-.6463.2608-.6439.7332.014,2.6579.0068,5.3163.0067,7.9747,0,2.6355.0122,5.27-.01,7.9059-.0048.5631.1675.8.749.7693.6454-.0345,1.2949.0136,1.9412-.01a56.9494,56.9494,0,0,0,6.5632-.31c4.9993-.7737,7.7892-4.7756,7.0369-9.7791A8.3458,8.3458,0,0,0,9.54,1.341Zm2.7936,8.89c-.2708,3.7574-2.8493,4.4622-5.6043,4.378-.4891-.0147-.5387-.3215-.5377-.7048.0048-1.8021.002-3.6043.0008-5.4065A4.2889,4.2889,0,0,0,4.9749,5.2739a6.5964,6.5964,0,0,1,4.2791.8038A4.7726,4.7726,0,0,1,11.58,9.6525c.3575-1.0853.2037-1.7251-.8053-3.577A4.7591,4.7591,0,0,1,12.3337,10.231Z"/>
        <path d="M70.8093,1.7429a.79.79,0,0,0-.85-.5424c-.8557.0164-1.7121.0109-2.568.0011-.7025-.0077-1.5292.2045-1.5877-1.0537-.07.0454-.14.09-.21.1356-2.4192,6.03-4.8385,12.06-7.3345,18.2809,1.8184,0,3.4319.0153,5.0443-.0208.1783-.0044.4209-.2674.512-.4664a16.3486,16.3486,0,0,0,.7615-1.935,1.0127,1.0127,0,0,1,1.1628-.8109c1.5258.0438,3.0553.0558,4.58-.0033.7666-.03,1.1866.1761,1.4017.9531.2075.75.3829,1.7371.9226,2.1023.568.3838,1.5507.1728,2.3529.1892.9405.02,1.8818.0049,2.9125.0049a5.2917,5.2917,0,0,0-.1692-.6315Q74.2751,9.8443,70.8093,1.7429ZM66.2219,11.698c.9454-1.9591,1.2939-4.1954,2.77-6.0112-.4847,2.0312.1652,3.835,1.1137,5.6651C68.7224,11.4749,67.524,11.5821,66.2219,11.698Z"/>
        <path d="M32.236,14.5986c-2.1269.0361-4.2551-.0049-6.3821.0246-.6163.0088-.8362-.2088-.7868-.807a7.3819,7.3819,0,0,0-.0014-1.3172c-.0639-.6528.1587-.8923.8449-.8776,1.9416.0411,3.8851-.0092,5.8269.0268.6535.0121.857-.2291.8275-.8475a19.6923,19.6923,0,0,1,.0033-2.2882c.0493-.7157-.2406-.92-.9212-.9077-1.9419.0356-3.8847.0148-5.8271.0263-.3985.0027-.7524.0142-.7463-.5435.0123-1.1247.0036-2.2494.0036-3.3741.3614.7534.7575,1.4533,1.6792,1.4724,1.8721.0394,3.7455.0295,5.618.0093.1679-.0016.475-.2247.4781-.351.0345-1.4014.0217-2.8039.0217-4.2058-.05-.0263-.1-.052-.1506-.0776-.4907.6818-1.2021.6419-1.8989.6424-3.33.0017-6.66.0093-9.99-.0071-.5669-.0027-.826.1307-.8234.7726q.0333,7.9432.0039,15.8871c-.0015.5407.1789.73.72.7277q5.7927-.0213,11.5855.0017c.56.0027.8035-.181.7841-.7568-.0263-.7851-.0386-1.5741.005-2.3577C33.1464,14.8059,32.9053,14.5877,32.236,14.5986Z"/>
        <path d="M129.1813,14.5986c-2.1272.0389-4.2555.011-6.3833.0153-.3791.0011-.729-.0207-.671-.5353a2.4848,2.4848,0,0,0-1.3028-2.4429h.6013c2.4749,0,4.95-.0132,7.4243.0087.5752.0049.785-.2.7643-.7682-.0311-.8552-.0241-1.712-.002-2.5671.012-.4642-.1389-.6632-.6326-.6611-1.78.0071-3.5608-.024-5.3413-.0311-1.712-.0071-1.69-.0017-1.6868-1.7338.0012-.5862.2133-.75.7733-.7431,2.1507.024,4.302-.0071,6.4527.0191.577.0071.7748-.1864.75-.7578-.0376-.8541-.0256-1.7114-.0036-2.5666.0114-.4434-.1569-.6309-.601-.63q-5.8284.0083-11.6569.0006c-.4381-.0006-.6123.1782-.6115.6244q.0126,8.049-.0011,16.0981c-.0009.48.1835.6649.6551.6528.74-.018,1.48-.0032,2.22-.0032,3.0993,0,6.1987-.0164,9.2977.0131.6735.006.9015-.2171.8588-.8781a15.6186,15.6186,0,0,1,.002-2.2188C130.1431,14.7763,129.8717,14.5861,129.1813,14.5986Z"/>
        <path d="M112.5751,13.75a4.3631,4.3631,0,0,0-.334-.4352c-.1405.09-.239.1454-.33.2122a5.5678,5.5678,0,0,1-6.4651.3111,5.6515,5.6515,0,0,1-2.8757-5.6088,4.1627,4.1627,0,0,1,4.05-4.0538,4.9451,4.9451,0,0,0-3.5721,4.2561c-.1679,1.4954.2447,2.6365.9395,3.0646a2.7352,2.7352,0,0,0-.0619-.2837,4.4072,4.4072,0,0,1,2.3-5.5328,5.5436,5.5436,0,0,1,5.26.229c.3381.1794.6812.3494,1.0832.555.5378-1.0328,1.0111-2.0094,1.55-2.9487.3031-.5282.2085-.7972-.3226-1.0815a12.3116,12.3116,0,0,0-7.8487-1.3861,8.47,8.47,0,0,0-7.5617,7.365A8.7666,8.7666,0,0,0,103.56,18.11a11.9925,11.9925,0,0,0,9.3289-.0907c1.7292-.7273,1.7187-.7491.7938-2.3446C113.3113,15.0344,112.95,14.3881,112.5751,13.75Z"/>
        <path d="M48.5192,7.8471c-1.5257.0218-3.0519.0065-4.5779.0065-1.9414,0-1.9185,0-1.9329-1.9279-.0045-.61.182-.7994.7915-.789,1.9184.0339,3.838,0,5.7568.02.5109.0055.7034-.1788.6894-.6862-.0242-.8781-.0188-1.7573-.0015-2.6355.0087-.4407-.1668-.6315-.61-.63q-3.919.009-7.838-.0022c-.4945-.0016-.641.2335-.6273.6862.0194.643.0049,1.286.0049,1.929l-.0691.0126c-.1288-.4117-.2418-.8289-.3895-1.233a1.7218,1.7218,0,0,0-2.0734-1.4008c-.5023.0131-.6841.1936-.6828.7032q.0194,7.9768,0,15.9537c-.0014.537.1771.7436.7208.7316,1.1555-.0262,2.313-.0372,3.4677.0044.6513.023.902-.1766.8862-.859-.04-1.71.0095-3.4223-.0245-5.1326-.0118-.6.1631-.8086.7825-.7972,1.9184.035,3.838.0011,5.7568.02.5029.0055.7124-.1629.6972-.6785-.0253-.8546-.0283-1.7114.0017-2.566C49.267,8.0319,49.0565,7.8394,48.5192,7.8471Z"/>
        <path d="M57.1709,1.9381c-.0017-.5348-.1776-.7507-.7218-.74-1.2025.023-2.4063.0279-3.6086-.0016-.5871-.0142-.757.2275-.7458.7835.0275,1.3648.0025,2.73.0091,4.0948a8.4749,8.4749,0,0,1-.8093,4.04,1.2982,1.2982,0,0,0-.0508.3707c.8148-.0826.8761.3882.8689,1.0006-.0246,2.0586-.0109,4.1178-.0084,6.1764.0012.91.0048.9125.9419.9147,1.0873.0027,2.1761-.0328,3.2615.0131.6783.0285.8679-.2258.8625-.8814-.0287-3.5163-.0264-7.0326-.0154-10.5489.0027-.8628.0721-1.7223-1.0762-1.9678a13.1416,13.1416,0,0,1,.6432-1.2674A3.41,3.41,0,0,0,57.1709,1.9381Z"/>
        <path d="M133.0267,1.2973V1.7h-.7792V3.7327h-.4833V1.7h-.7792V1.2973Zm2.6321,2.4354-.09-1.4326c-.0088-.1881-.0088-.421-.0181-.6813h-.0268c-.0623.2155-.1339.502-.2055.7262L134.88,3.6966h-.5014L133.94,2.3089c-.0448-.1881-.1165-.4746-.17-.69h-.0268c0,.2242-.0092.4571-.018.6813l-.09,1.4326H133.17l.1788-2.4354h.7256l.4205,1.1909c.0535.1881.0984.3663.1613.6168h.0087c.0629-.2231.1165-.4287.17-.608l.421-1.2h.6982l.1881,2.4354Z"/>
      </g>
</svg>
