<svg xmlns="http://www.w3.org/2000/svg" viewBox="0 0 137 42" preserveAspectRatio="xMinYMin meet">
      <rect id="Background" fill="white" width="137" height="42"/>
      <g id="Dominion">
        <path d="M1.1333.4263V17.4409s13.2054,2.4126,13.2054-8.5073C14.3387-2.24,1.1333.4263,1.1333.4263ZM3.9267,15.1554V2.7118s7.7455-1.0158,7.7455,6.2218S3.9267,15.1554,3.9267,15.1554Z"/>
        <path d="M25.9569.5532c-4.453,0-8.0629,3.8942-8.0629,8.6978s3.61,8.6978,8.0629,8.6978A8.606,8.606,0,0,0,34.2738,9.251,8.6061,8.6061,0,0,0,25.9569.5532Zm.04,14.6657c-3.0554,0-5.5323-2.9259-5.5323-6.2218a5.7624,5.7624,0,0,1,5.5323-5.9678,5.9048,5.9048,0,0,1,5.7064,5.9678C31.7032,12.293,29.0521,15.2189,25.9968,15.2189Z"/>
        <polygon points="46.844 9.949 39.226 0.553 38.845 0.553 38.845 17.695 41.257 17.695 41.257 6.521 46.844 13.632 52.304 6.394 52.304 17.695 54.844 17.695 54.844 0.553 54.336 0.553 46.844 9.949"/>
        <path d="M61.1925,11.3461s.3809,5.7139,1.5237,7.8725c0,0,1.3967-2.0316,1.5237-7.8725V.5532H61.1925Zm1.5237-10.285H63.732v9.1422a28.2465,28.2465,0,0,1-1.0158,7.4916Z"/>
        <polygon points="81.636 11.727 71.731 0.553 71.478 0.553 71.478 17.695 73.763 17.695 73.763 6.775 83.667 17.695 83.921 17.695 83.921 1.061 81.636 1.061 81.636 11.727"/>
        <rect x="91.7935" y="1.0611" width="2.6665" height="16.1258"/>
        <path d="M108.6177.5532c-4.453,0-8.0629,3.8942-8.0629,8.6978s3.61,8.6978,8.0629,8.6978a8.606,8.606,0,0,0,8.3169-8.6978A8.606,8.606,0,0,0,108.6177.5532Zm.04,14.6657c-3.0554,0-5.5322-2.9259-5.5322-6.2218a5.7623,5.7623,0,0,1,5.5322-5.9678,5.9048,5.9048,0,0,1,5.7065,5.9678C114.3641,12.293,111.713,15.2189,108.6576,15.2189Z"/>
        <polygon points="133.568 1.188 133.568 11.854 123.664 0.68 123.41 0.68 123.41 17.822 125.696 17.822 125.696 6.902 135.6 17.822 135.854 17.822 135.854 1.188 133.568 1.188"/>
      </g>
</svg>
