<svg xmlns="http://www.w3.org/2000/svg" viewBox="0 0 137 42" preserveAspectRatio="xMinYMin meet">
      <rect id="Background" fill="white" width="137" height="42"/>
      <g id="Girlfriends_Guide_To_Divorce" data-name="Girlfriends Guide To Divorce">
        <g>
          <path d="M7.9213,9.2868h3.2215v1.7258c-.46.46-2.8763.46-2.8763.46C4.01,11.5879,4.1246,7.2159,4.1246,7.2159,3.78,2.959,8.0364,2.7288,8.0364,2.7288c1.6107-.3451,2.9914,1.2656,2.9914,1.2656l1.9558-1.9559C11.3729.0826,8.0364.1977,8.0364.1977c-6.4429.1151-6.9031,6.673-6.9031,6.673.115,7.7085,7.2483,7.3634,7.2483,7.3634a9.3831,9.3831,0,0,0,5.4074-1.6108V6.6406H7.9213Z"/>
          <rect x="16.0901" y="0.5429" width="2.8763" height="13.6912"/>
          <path d="M31.277,5.26A4.4769,4.4769,0,0,0,26.4448.5429H21.3825V14.2341h2.9913V10.5524h1.6107l2.3011,3.6817h3.2215L28.8609,9.747S31.277,9.0567,31.277,5.26ZM24.1437,8.1363V2.7288s4.372-.69,4.372,2.7613S24.1437,8.1363,24.1437,8.1363Z"/>
          <path d="M36.1091,11.4728V.3128H33.2328c-.115.23,0,13.9213,0,13.9213H42.322V11.5879S36.1091,11.5879,36.1091,11.4728Z"/>
          <polygon points="44.048 14.234 46.809 14.234 46.809 9.977 52.216 9.977 52.216 7.216 46.809 7.216 46.809 2.844 52.792 2.844 52.792 0.313 44.048 0.313 44.048 14.234"/>
          <path d="M64.8722,5.1449A4.4769,4.4769,0,0,0,60.04.4278H54.9777V14.119h2.9914V10.4373H59.58l2.3011,3.6817h3.2214L62.4561,9.632S64.8722,8.9417,64.8722,5.1449ZM57.739,8.0213V2.6138s4.372-.69,4.372,2.7613S57.739,8.0213,57.739,8.0213Z"/>
          <rect x="66.8281" y="0.4278" width="2.8763" height="13.6912"/>
          <polygon points="74.997 9.517 80.404 9.517 80.404 7.101 74.997 7.101 74.997 2.844 81.21 2.844 81.21 0.428 72.121 0.428 72.121 14.119 81.555 14.119 81.555 11.473 74.997 11.473 74.997 9.517"/>
          <polygon points="92.14 8.366 83.626 0.198 83.626 14.119 86.272 14.119 86.272 6.295 94.786 14.579 94.786 0.428 92.14 0.428 92.14 8.366"/>
          <path d="M100.6535.4278H96.8567V14.004h4.6021s6.6731.115,6.6731-7.1333C108.1319.1977,100.6535.4278,100.6535.4278Zm-.8054,11.045V2.8439s5.4075-.5753,5.4075,4.2569C105.2556,12.3945,99.8481,11.4728,99.8481,11.4728Z"/>
          <path d="M113.6544,5.1449s-2.4161-1.4956,0-2.4161c.92-.3451,2.4161,1.1506,2.4161,1.1506l1.9559-1.4957c-1.3807-2.7613-4.6021-2.186-4.6021-2.186a3.8442,3.8442,0,0,0-3.4516,3.7967,3.6743,3.6743,0,0,0,2.7612,4.1419s4.8322,1.15,2.6463,3.1064c-2.3011,1.1505-3.9118-1.3806-3.9118-1.3806l-2.5312,1.4957a6.467,6.467,0,0,0,3.4516,2.7612c3.3365.92,4.8322-.69,4.8322-.69s3.4516-2.301,1.0355-5.5225C117.336,6.4105,113.6544,5.1449,113.6544,5.1449Z"/>
          <path d="M120.6726.1977c-1.9559,0-1.7258,1.6107-1.7258,1.6107a1.3663,1.3663,0,0,0,.92,1.6108L119.0618,5.49h1.4957l1.0355-1.7258a4.4408,4.4408,0,0,0,.5752-1.9559A1.4178,1.4178,0,0,0,120.6726.1977Z"/>
        </g>
        <g>
          <path d="M4.439,22.03H5.9174v.792c-.2112.2111-1.32.2111-1.32.2111A1.8324,1.8324,0,0,1,2.6967,21.08,1.8581,1.8581,0,0,1,4.4919,19.02a1.6394,1.6394,0,0,1,1.3727.5808l.8975-.8975a3.159,3.159,0,0,0-2.27-.8448A3.2543,3.2543,0,0,0,1.324,20.921,3.1712,3.1712,0,0,0,4.65,24.3a4.3062,4.3062,0,0,0,2.4815-.7392V20.8154H4.439Z"/>
          <path d="M13.4439,17.9157H12.0632v3.6817s.1151,1.4957-1.2656,1.4957-1.15-1.4957-1.15-1.4957V17.9157H8.2665v4.1419s-.23,2.4161,2.6462,2.4161,2.5312-2.4161,2.5312-2.4161Z"/>
          <rect x="14.5944" y="17.9157" width="1.4957" height="6.558"/>
          <path d="M22.4755,21.0381c0-3.2344-3.6248-3.1229-3.6248-3.1229h-1.84v6.58h2.2306A3.1971,3.1971,0,0,0,22.4755,21.0381ZM18.46,23.2687V19.0863s2.6209-.2788,2.6209,2.0633C21.0813,23.7154,18.46,23.2687,18.46,23.2687Z"/>
          <polygon points="27.782 23.253 24.613 23.253 24.613 22.308 27.226 22.308 27.226 21.14 24.613 21.14 24.613 19.083 27.615 19.083 27.615 17.916 23.223 17.916 23.223 24.531 27.782 24.531 27.782 23.253"/>
          <polygon points="16.09 27.35 17.701 27.35 17.701 32.527 19.196 32.527 19.196 27.35 20.922 27.35 20.922 26.084 16.09 26.084 16.09 27.35"/>
          <path d="M24.4889,25.9119a3.3941,3.3941,0,1,0,3.394,3.394A3.394,3.394,0,0,0,24.4889,25.9119Zm0,5.35a1.9559,1.9559,0,1,1,1.9559-1.9559A1.9559,1.9559,0,0,1,24.4889,31.2618Z"/>
        </g>
        <g>
          <path d="M35.9019,17.2255H31.7372V32.1177h5.0482s7.32.1263,7.32-7.8247C44.1053,16.9731,35.9019,17.2255,35.9019,17.2255Zm-.8834,12.1157V19.8758s5.9317-.631,5.9317,4.67C40.95,30.3522,35.0185,29.3412,35.0185,29.3412Z"/>
          <rect x="46.1187" y="17.2254" width="2.8763" height="14.8993"/>
          <polygon points="61.075 17.225 57.624 25.279 54.172 17.225 50.606 17.225 57.394 32.067 64.412 17.225 61.075 17.225"/>
          <path d="M71.3151,16.9378a7.7661,7.7661,0,1,0,7.7661,7.766A7.7661,7.7661,0,0,0,71.3151,16.9378Zm0,12.2414a4.4754,4.4754,0,1,1,4.4754-4.4754A4.4754,4.4754,0,0,1,71.3151,29.1792Z"/>
          <path d="M91.7151,22.6444A4.9016,4.9016,0,0,0,86.4245,17.48H80.8819V32.47H84.157v-4.031h1.7636L88.44,32.47H91.967L89.07,27.5571S91.7151,26.8013,91.7151,22.6444Zm-7.81,3.1492V19.8731s4.7867-.7558,4.7867,3.0232S83.9051,25.7936,83.9051,25.7936Z"/>
          <path d="M100.7685,29.1792a4.4754,4.4754,0,1,1,3.4974-7.2661l2.685-1.9078a7.7661,7.7661,0,1,0,.205,9.1142l-2.6014-2.03A4.4712,4.4712,0,0,1,100.7685,29.1792Z"/>
          <polygon points="111.928 29.382 111.928 27.27 117.767 27.27 117.767 24.661 111.928 24.661 111.928 20.064 118.637 20.064 118.637 17.456 108.822 17.456 108.822 32.24 119.01 32.24 119.01 29.382 111.928 29.382"/>
        </g>
      </g>
</svg>
