<svg xmlns="http://www.w3.org/2000/svg" viewBox="0 0 137 42" preserveAspectRatio="xMinYMin meet">
      <rect id="Background" fill="white" width="137" height="42"/>
      <g id="Granite_Flats" data-name="Granite Flats">
        <g>
          <path d="M9.0073,4.0655A4.1959,4.1959,0,0,0,4.831.15,3.4751,3.4751,0,0,0,1.1333,3.7609v9.9622S1.09,17.16,5.0485,16.9423a3.7739,3.7739,0,0,0,3.8283-3.8282V8.5463l-3.589-.0218v2.3927H6.7669v2.2249A1.4728,1.4728,0,0,1,5.294,14.6149H5.05a1.3282,1.3282,0,0,1-1.3282-1.3282V3.857A1.3141,1.3141,0,0,1,5.0359,2.5429h.4912A1.5226,1.5226,0,0,1,7.05,4.0655H9.0073Z"/>
          <path d="M14.6192,1.6293l-3.6543-.522v14.965l2.1317-.174s.0435-5.1334,0-5.22c-.0382-.0763,0,0,1.5056.0443a1.0961,1.0961,0,0,1,1.1046,1.0731v3.929l1.6531-.1306v-4.22a2.3348,2.3348,0,0,0-.7831-1.74s.87-.3045.9136-2.5666V4.805A3.4052,3.4052,0,0,0,14.6192,1.6293Zm1.0876,5.7848a1.2628,1.2628,0,0,1-1.2627,1.2627h-1.391V3.3259l1.0714.07a1.6931,1.6931,0,0,1,1.5823,1.6894Z"/>
          <path d="M21.5362,2.5429c-2.2622-.0435-2.2622,2.48-2.2622,2.48V15.42l1.5226-.174V10.5474l2.0011.0435.0435,4.5243,1.4356-.087V5.4141A3.0569,3.0569,0,0,0,21.5362,2.5429Zm1.2615,6.2644H20.84V5.318a1.035,1.035,0,0,1,1.035-1.035h0a.9226.9226,0,0,1,.9226.9226Z"/>
          <path d="M28.8447,9.9384l-1.74-6.7865L25.93,2.9779V14.8542l1.2615-.1305s-.0435-6.3949,0-6.3079,1.74,6.1339,1.74,6.1339l1.044-.0435V3.5434l-1.1746-.2175Z"/>
          <path d="M31.15,3.7609V14.3757l1.0876-.1741s-.0435-10.1361,0-10.2231S31.15,3.7609,31.15,3.7609Z"/>
          <polygon points="33.108 5.545 34.239 5.588 34.239 14.028 35.153 13.897 35.196 5.675 36.24 5.762 36.24 4.457 33.108 4.065 33.108 5.545"/>
          <polygon points="39.59 6.11 39.59 4.849 36.893 4.5 36.936 13.81 39.59 13.506 39.59 12.462 37.763 12.462 37.763 9.895 39.329 9.895 39.329 8.459 37.763 8.459 37.763 5.936 39.59 6.11"/>
        </g>
        <g>
          <polygon points="5.07 28.71 6.027 28.927 6.027 24.49 7.528 24.49 7.528 23.076 6.006 23.076 6.006 20.031 8.268 20.031 8.268 18.291 5.07 18.661 5.07 28.71"/>
          <polygon points="10.878 18.073 9.747 18.291 9.747 29.297 13.227 29.906 13.227 28.253 10.878 27.992 10.878 18.073"/>
          <path d="M16.7508,17.7689c-2.0446-.0435-2.3491,2.6537-2.3491,2.6537V30.08l1.4356.348L15.7938,25.86l1.9576.0435v4.7854l1.5226.2175v-10.31C19.1,17.5514,16.7508,17.7689,16.7508,17.7689Zm1.0876,6.3949-2.0011-.087V20.4907a.9817.9817,0,0,1,.9817-.9817h0a1.0194,1.0194,0,0,1,1.0194,1.0194Z"/>
          <path d="M20.3181,19.3785l1.9576-.2175V31.3418l1.8706.348V19.1175l2.3057-.1305V16.7683l-6.1339.6091C20.2746,17.5079,20.3181,19.3785,20.3181,19.3785Z"/>
          <path d="M30.5848,18.5954A1.5477,1.5477,0,0,1,32.89,19.857h2.3927v-.2113a3.53,3.53,0,0,0-3.53-3.53h-.3854a3.6107,3.6107,0,0,0-3.6107,3.6107v.261a3.7617,3.7617,0,0,0,1.1311,2.6972l3.5237,5.3074.24.3717a1.4545,1.4545,0,0,1-.3157,1.9285h0a1.34,1.34,0,0,1-1.7241-.0472L30.28,29.95s-.5655-.696-.4785-1.2181l-2.0446-.174A3.985,3.985,0,0,0,31.7158,32.69a3.1656,3.1656,0,0,0,3.4368-2.5232s.522-1.74-1.3921-4.2633l-3.6543-5.22A1.4244,1.4244,0,0,1,30.5848,18.5954Z"/>
        </g>
      </g>
</svg>
