<svg xmlns="http://www.w3.org/2000/svg" viewBox="0 0 137 42" preserveAspectRatio="xMinYMin meet">
      <rect id="Background" fill="white" width="137" height="42"/>
      <g id="HitRecord_on_TV" data-name="HitRecord on TV">
        <g>
          <path d="M6.58,4.0155H3.2926V.5991L1.1333.6314v9.411a15.5966,15.5966,0,0,0,2.1271,0c.0967-.0967,0-4.0931,0-4.0931H6.5156v4.1253H8.7717V.5991H6.58Z"/>
          <rect x="9.6096" y="0.5991" width="2.3205" height="9.4755"/>
          <path d="M12.6392,2.5974h2.7717v7.4772s2.0627-.0644,2.1272,0,0-7.5417,0-7.5417h2.8362V.5991H12.6392Z"/>
          <path d="M28.4317,8.4632S28.8829,5.9493,27.4,5.498c.7091,0,1.2892-.9668,1.2892-1.8693V3.1271a2.399,2.399,0,0,0-2.399-2.399H21.1478v9.3465h2.1271V6.5294s3.1263-.0967,3.03,0a10.9686,10.9686,0,0,0,0,2.3205s.0645,1.0958.2579,1.2247h2.32V9.6234S28.4317,9.559,28.4317,8.4632ZM26.5624,3.798A.8621.8621,0,0,1,25.7,4.66H23.2749V2.404h2.2809a1.0066,1.0066,0,0,1,1.0066,1.0066Z"/>
          <path d="M31.9125,6.0782H36.36V4.2089s-4.3832-.0645-4.3832,0v-1.74h4.8345V.5991H29.85v9.4755h7.1549V8.0764H31.9125Z"/>
          <path d="M41.8553,8.3342c-1.157,0-2.0949-1.3419-2.0949-2.9973S40.6983,2.34,41.8553,2.34a2.1348,2.1348,0,0,1,1.8439,1.5738c.644.0084,1.8116-.0133,2.2683-.0227A4.4019,4.4019,0,0,0,41.8553.5347a4.5985,4.5985,0,0,0-4.3188,4.8344,4.5985,4.5985,0,0,0,4.3188,4.8344,4.42,4.42,0,0,0,4.1459-3.4807H43.7127A2.15,2.15,0,0,1,41.8553,8.3342Z"/>
          <circle cx="51.4436" cy="5.2402" r="5.0923"/>
          <path d="M64.5932,8.4632s.4512-2.5139-1.0313-2.9652c.709,0,1.2891-.9668,1.2891-1.8693V3.1271A2.399,2.399,0,0,0,62.452.7281H57.3093v9.3465h2.1272V6.5294s3.1262-.0967,3.03,0a10.9618,10.9618,0,0,0,0,2.3205s.0644,1.0958.2578,1.2247h2.32V9.6234S64.5932,9.559,64.5932,8.4632ZM62.7239,3.798a.8621.8621,0,0,1-.8621.8621H59.4365V2.404h2.2808a1.0066,1.0066,0,0,1,1.0066,1.0066Z"/>
          <path d="M70.5454.7281h-4.47v9.3465H70.459a3.5451,3.5451,0,0,0,3.5452-3.5452V4.1869A3.4587,3.4587,0,0,0,70.5454.7281ZM71.8126,6.336a1.8048,1.8048,0,0,1-1.8048,1.8049H68.1385V2.404h1.8693a1.8048,1.8048,0,0,1,1.8048,1.8049Z"/>
        </g>
        <path d="M21.0189,23.4177c-.7735.3223-.6446-.4513-.6446-.4513V20.9038a1.09,1.09,0,0,0-.7735-1.0958c-.7091-.3223-1.676.6445-1.676.6445v-.4512l-1.4181.3223v1.2892c-.0644.1934-.6445.2578-.6445.2578a1.2688,1.2688,0,0,0-1.74-1.16c-1.9338.6446-1.74,2.9651-1.74,2.9651,0,1.6759.8379,2.0627.8379,2.0627a1.9119,1.9119,0,0,0,1.9338-.3223c1.0314-.838.7735-2.9007.7735-2.9007a1.9649,1.9649,0,0,0,.58-.3223v3.223l1.4181-.3868v-3.932c0-.3223.58-.3867.58-.3867.5156-.0645.4512.58.4512.58v1.6759c0,1.6809,1.0958,1.6115,1.0958,1.6115A1.09,1.09,0,0,0,21.0189,23.4177ZM14.573,24.7713c-.7091.2578-.7735-.838-.7735-.838-.3223-1.6759.2578-2.32.2578-2.32.58-.6446.948-.0456.9024,0a1.2668,1.2668,0,0,0-.2578.58.464.464,0,0,0,.5157.6446C15.3465,24.7068,14.573,24.7713,14.573,24.7713Z"/>
        <g>
          <path d="M18.4405,17.1651h6.9616V32.7c0-.0645,3.9965,0,3.9965,0V17.1651h6.8971V13.1042H18.4405Z"/>
          <circle cx="34.0396" cy="30.6371" r="2.0627"/>
          <circle cx="54.2153" cy="30.6371" r="2.0627"/>
          <polygon points="52.41 13.104 47.834 22.773 43.257 13.104 38.874 13.104 47.834 32.7 56.858 13.104 52.41 13.104"/>
        </g>
      </g>
</svg>
