<svg xmlns="http://www.w3.org/2000/svg" viewBox="0 0 137 42" preserveAspectRatio="xMinYMin meet">
  <defs>
    <style>
      .cls-2 {
        fill-rule: evenodd;
      }
    </style>
  </defs>
      <rect id="Background" fill="white" width="137" height="42"/>
      <g id="Queen_of_the_South" data-name="Queen of the South">
        <polygon class="cls-2" points="52.924 20.902 55.594 20.902 55.594 25.443 60.084 25.443 60.084 20.902 62.754 20.902 62.754 32.471 60.084 32.471 60.084 27.849 55.594 27.849 55.594 32.471 52.924 32.471 52.924 20.902 52.924 20.902"/>
        <polygon class="cls-2" points="30.208 0.414 37.505 0.414 37.505 2.873 32.878 2.873 32.878 4.923 37.09 4.923 37.09 7.277 32.878 7.277 32.878 9.525 37.505 9.525 37.505 11.984 30.208 11.984 30.208 0.414 30.208 0.414"/>
        <path class="cls-2" d="M16.5377.4143h2.67V7.0565a3.0186,3.0186,0,0,0,.5273,1.873,2.0336,2.0336,0,0,0,1.6364.7506,2.3884,2.3884,0,0,0,1.4346-.3921A2.6117,2.6117,0,0,0,23.67,7.09V.4143h2.67V7.6534a4.3121,4.3121,0,0,1-2.28,3.9526,5.7126,5.7126,0,0,1-2.6375.5595,5.27,5.27,0,0,1-3.0644-.8058,4.4736,4.4736,0,0,1-1.82-3.7624V.4143Z"/>
        <polygon class="cls-2" points="41.42 0.414 48.717 0.414 48.717 2.873 44.089 2.873 44.089 4.923 48.301 4.923 48.301 7.277 44.089 7.277 44.089 9.525 48.717 9.525 48.717 11.984 41.42 11.984 41.42 0.414 41.42 0.414"/>
        <polygon class="cls-2" points="59.873 0.414 62.543 0.414 62.543 12.159 62.319 12.208 55.259 5.856 55.259 11.984 52.589 11.984 52.589 0.208 52.866 0.148 59.873 6.442 59.873 0.414 59.873 0.414"/>
        <polygon class="cls-2" points="40.169 20.902 49.732 20.902 49.732 23.36 46.299 23.36 46.299 32.471 43.629 32.471 43.629 23.36 40.169 23.36 40.169 20.902 40.169 20.902"/>
        <path class="cls-2" d="M7.1852.192a5.67,5.67,0,0,1,5.8729,5.97,6.0688,6.0688,0,0,1-.9744,3.2824l1.2427,1.1181L11.7,12.4068l-1.3461-1.2112a6.021,6.021,0,0,1-3.348.9815A5.7459,5.7459,0,0,1,1.1777,6.1845,5.8125,5.8125,0,0,1,7.1852.192ZM8.4139,6.1428l1.5223,1.37a4.1108,4.1108,0,0,0,.2249-1.3413c0-1.9259-1.1-3.56-3.0087-3.56-1.8746,0-3.0777,1.62-3.0777,3.5732,0,2.0061,1.2259,3.5732,2.9858,3.5732a2.7653,2.7653,0,0,0,1.3256-.3325L6.7875,7.9869,8.4139,6.1428Z"/>
        <path class="cls-2" d="M18.02,20.7348a5.67,5.67,0,0,1,5.8582,5.9925,5.81,5.81,0,0,1-5.9927,5.9478,5.6429,5.6429,0,0,1-5.8582-5.9478A5.7358,5.7358,0,0,1,18.02,20.7348Zm-.0777,2.3746C19.9884,23.1094,21,24.7433,21,26.714c0,1.8457-1.0714,3.5642-3.0374,3.5642-1.9413,0-3.1238-1.5671-3.1238-3.5732,0-1.9527,1.0028-3.5956,3.1037-3.5956Z"/>
        <path class="cls-2" d="M27.3559,20.9016h2.67v6.6893a3.0175,3.0175,0,0,0,.5273,1.873,2.0337,2.0337,0,0,0,1.6364.7505,2.3888,2.3888,0,0,0,1.4345-.392,2.6112,2.6112,0,0,0,.8638-2.1979V20.9016h2.67v7.2861a4.312,4.312,0,0,1-2.28,3.9527,5.713,5.713,0,0,1-2.6376.56,5.27,5.27,0,0,1-3.0643-.8059,4.4739,4.4739,0,0,1-1.82-3.7624v-7.23Z"/>
        <path class="cls-2" d="M1.8983,29.0068A5.8573,5.8573,0,0,0,5.1153,30.14c.598.0091,1.202-.21,1.2977-.7866a1.1482,1.1482,0,0,0-.4941-1.1268C4.79,27.533,3.63,27.3646,2.6765,26.4638a3.2436,3.2436,0,0,1-.8349-3.5907A3.8457,3.8457,0,0,1,5.6379,20.72a6.8916,6.8916,0,0,1,3.3472.8672l-.7113,2.4471A5.9091,5.9091,0,0,0,6.152,23.15c-.8139-.1233-1.6-.0035-1.7612.6707a.9.9,0,0,0,.1182.73c.3065.4369,2.1861,1.1489,2.8858,1.5349a3.2336,3.2336,0,0,1,1.8107,3.147,3.6772,3.6772,0,0,1-3.6271,3.4514,7.451,7.451,0,0,1-4.4451-1.1844l.765-2.4921Z"/>
        <path class="cls-2" d="M39.92,14.2508h1.3962v.1008h-.1013a.4026.4026,0,0,0-.3834.4029v1.5833h2.4733V14.7545a.4025.4025,0,0,0-.3834-.4029H42.82v-.1008h1.3962v.1008H44.115a.4027.4027,0,0,0-.3834.4029v3.3178a.4092.4092,0,0,0,.3834.41h.1013v.1008H42.82v-.1008h.1013a.409.409,0,0,0,.3834-.41V16.57H40.8315v1.502a.4091.4091,0,0,0,.3834.41h.1013v.1008H39.92v-.1008h.1013a.409.409,0,0,0,.3834-.41V14.7545a.4025.4025,0,0,0-.3834-.4029H39.92v-.1008Z"/>
        <path class="cls-2" d="M35.9385,14.4833v3.589a.4093.4093,0,0,0,.3834.41h.1013v.1008H35.027v-.1008h.1013a.409.409,0,0,0,.3834-.41v-3.589H34.1194a.6387.6387,0,0,0-.5973.9529l-.0633.0875c-.44-.5656-.09-1.2729.7236-1.2729h2.2612a3.0891,3.0891,0,0,0,1.0978-.147v.83h-.1086v-.1023a.3222.3222,0,0,0-.3415-.348Z"/>
        <path class="cls-2" d="M16.9229,18.3266a2.2435,2.2435,0,0,1-1.1111-1.7476,2.1866,2.1866,0,0,1,1.1677-2.2l.1406.0392a2.5157,2.5157,0,0,0-.7605,2.1677,2.0053,2.0053,0,0,0,.7485,1.4379,2.0758,2.0758,0,0,0,2.3286.0927,1.97,1.97,0,0,0,.849-1.41A1.8447,1.8447,0,0,0,18.7026,14.4a1.4549,1.4549,0,0,0-1.1313.41,1.1736,1.1736,0,0,0-.312.8439l-.09.1094a1.2116,1.2116,0,0,1,.4471-1.28,1.839,1.839,0,0,1,1.0773-.3321,2.1484,2.1484,0,0,1,2.1129,2.7061,2.1953,2.1953,0,0,1-1.07,1.4866,2.9587,2.9587,0,0,1-2.8131-.0175Z"/>
        <path class="cls-2" d="M23.2142,14.2508h1.48a3.09,3.09,0,0,0,1.0978-.147v.83h-.1087v-.1424a.3079.3079,0,0,0-.3415-.3079H24.1257v1.8545H25.14c.2095,0,.2613-.1842.2613-.34v-.0517h.1423v1.0066h-.1423v-.0747c0-.1556-.0522-.3079-.2613-.3079H24.1257v1.514a.3983.3983,0,0,0,.3834.3981H24.61v.1008H23.2142v-.1008h.1013a.398.398,0,0,0,.3834-.3981v-3.33a.4026.4026,0,0,0-.3834-.4029h-.1013v-.1008Z"/>
        <path class="cls-2" d="M46.4974,14.2508h1.4819a3.09,3.09,0,0,0,1.0978-.147v.83h-.1087v-.1424a.3079.3079,0,0,0-.3415-.3079H47.4161v1.8545h1.0087c.21,0,.2613-.1842.2613-.34v-.0517h.1424v1.0066h-.1424v-.0747c0-.1556-.0522-.3079-.2613-.3079H47.4161v1.78h.8968a1.0855,1.0855,0,0,0,1.0378-.7907h.114l-.3724,1.0232H46.4974v-.1008h.1014a.409.409,0,0,0,.3834-.41V14.7545a.4026.4026,0,0,0-.3834-.4029h-.1014v-.1008Z"/>
      </g>
</svg>
