<svg xmlns="http://www.w3.org/2000/svg" viewBox="0 0 137 42" preserveAspectRatio="xMinYMin meet">
      <rect id="Background" fill="white" width="137" height="42"/>
      <g id="Teen_Wolf" data-name="Teen Wolf">
        <path d="M4.7006,14.1944H8.1193l3.0471-10.925s1.2635-.446,1.858.1486l.52.5946S13.47,5.35,13.8419,5.35c0,0,.3716.1487.2973-1.2634,0,0,.223-.5946.6689-.6689L15.5513.2223H3.7344L2.9913,3.3437H7.1532Z"/>
        <path d="M24.3953,14.1944l.7432-3.0471H17.1863l1.1148-2.75H24.99l.6689-2.8241H18.5241l.52-2.23s7.5063,0,7.5063-.0743.7432-3.0471.7432-3.0471H16.1458L13.0987,14.1944h3.4177l-4.31,10.702V14.343H9.0111L4.6263,24.8964,4.7749,14.343H1.1333s.4459,5.6483.4459,5.7226.4459,6.9117.4459,6.9117c.1486,1.7094.2973,1.7837.2973,1.7837a1.4857,1.4857,0,0,1,.3716,1.0405c-.0743,1.4121.3716,1.04.3716,1.04.2973-.223.0743-.6689.0743-.6689a1.9234,1.9234,0,0,1,.0743-1.1148c.0743-.5946.8175-.4459.8175-.4459s.3716.5945.4459.7432a2.7264,2.7264,0,0,1,.0744,2.0066C4.2547,32.7,4.7006,32.7,4.7006,32.7c.3716-.3716.1486-1.3378.1486-1.3378a5.1774,5.1774,0,0,1,.1487-2.0809,3.2663,3.2663,0,0,0,.7432-.8176c.6317-.6317,1.4121-3.79,1.4121-3.79l2.23-5.7226h.3716v9.3643h3.5674l6.9517-14.1207Z"/>
        <path d="M31.9759,14.343s.446-.0743.446.52c0,0-.1487,1.5607,0,1.5607,0,0,.4459.3716.52-.4459,0,0-.1487-1.2634.3716-1.5607l.2973-.2229h2.5268l.7432-2.9728s-7.8035.2229-7.8035.0743.7432-2.8985.7432-2.8985h7.06l.52-2.6755h-7.06l.7432-2.4525h7.2833L39.0363.2223H27.9627L24.99,14.343Z"/>
        <polygon points="52.265 0.148 48.772 0.148 47.063 9.587 43.421 0.222 39.854 0.222 36.881 14.194 40.225 14.194 42.158 4.979 45.874 14.343 49.144 14.194 52.265 0.148"/>
        <path d="M31.4557,22.9641c1.1453-3.8528.0743-7.7293-4.4592-8.4725-3.87-.6344-7.7042,1.0834-8.85,4.9362-.93,3.128-1.0319,6.496,2.0493,8.15h0q.28.15.5948.2808c.8383.4332,2.2664,1.3267,2.2664,2.3888,0,.223.0743,1.1891.52,1.1148,0,0,.4459-.223.4459-1.2634,0,0,.0743-1.0405.6689-1.1891a2.3111,2.3111,0,0,0,1.9871-.8031h0A7.6436,7.6436,0,0,0,31.4557,22.9641Zm-3.1666-.5771c-.7227,2.4313-2.8245,3.9517-4.6945,3.3958s-2.8-2.9774-2.0772-5.4087,2.8245-3.9517,4.6944-3.3959S29.0118,19.9557,28.2891,22.387Z"/>
        <polygon points="35.172 25.417 37.401 14.343 33.908 14.343 30.787 28.538 40.894 28.538 41.637 25.417 35.172 25.417"/>
        <path d="M54.1232,17.3158l.6689-2.9728H44.313L41.4889,28.3151h3.493l.8918-4.0133a1.8333,1.8333,0,0,0,1.1148-1.3377h5.0538l.6688-2.8242-6.02.1487L47.36,17.39Z"/>
      </g>
</svg>
