<svg xmlns="http://www.w3.org/2000/svg" viewBox="0 0 137 42" preserveAspectRatio="xMinYMin meet">
      <rect id="Background" fill="white" width="137" height="42"/>
      <g id="The_Arrangement" data-name="The Arrangement">
        <polygon points="3.986 6.842 3.986 1.465 5.962 1.465 5.962 6.842 6.949 6.842 6.949 4.098 10.022 4.098 10.022 6.842 11.119 6.842 11.119 0.367 10.022 0.367 10.022 2.891 6.949 2.891 6.949 0.367 1.133 0.367 1.133 1.465 2.779 1.465 2.779 6.842 3.986 6.842"/>
        <polygon points="16.716 5.635 13.094 5.635 13.094 4.098 15.618 4.098 15.618 3.001 13.094 3.001 13.094 1.574 16.716 1.574 16.716 0.367 11.997 0.367 11.997 6.842 16.716 6.842 16.716 5.635"/>
        <path d="M18.1422,8.3781H2.889v1.9752H17.1546l-.9876,2.3045h2.1947l.9876-2.3045h5.0478l.9876,2.3045H27.58L21.983.4771Zm1.9753-.11s1.646-3.5115,1.7557-3.731l1.7558,3.731Z"/>
        <path d="M35.1351,7.2807a2.8692,2.8692,0,0,0,2.8692-2.8692V3.7681A3.4006,3.4006,0,0,0,34.6036.3674H28.2379c-.11.11,0,12.29,0,12.29h2.1947V7.3905h2.1947L35.7,12.6578h2.5239L35.0415,7.2807ZM30.4326,5.3055V2.4524h4.2a1.2868,1.2868,0,0,1,1.2868,1.2868v.24a1.3266,1.3266,0,0,1-1.3266,1.3266Z"/>
        <path d="M45.9052,7.2807h.0936a2.8692,2.8692,0,0,0,2.8693-2.8692V3.7681A3.4006,3.4006,0,0,0,45.4674.3674H39.1017c-.11.11,0,12.29,0,12.29h2.1947V7.3905h2.1947l3.0726,5.2673h1.3991l.501-1.0539ZM41.2964,5.3055V2.4524h4.2a1.2868,1.2868,0,0,1,1.2868,1.2868v.24a1.3266,1.3266,0,0,1-1.3266,1.3266Z"/>
        <path d="M48.4638,11.6039l.6238,1.0539h1.207l.9877-2.4142H56.22l1.0973,2.4142h2.1947L53.8062.3674ZM52.05,8.3781s1.7558-3.95,1.7558-4.06l1.7557,4.06Z"/>
        <polygon points="47.963 12.658 49.088 12.658 48.464 11.604 47.963 12.658"/>
        <path d="M67.7426,7.72,60.0611.3674v12.29a14.6566,14.6566,0,0,0,2.1947,0V5.086l7.6815,7.7912V.3674H67.7426Z"/>
        <path d="M81.4646,7.5a4.2251,4.2251,0,1,1-.8437-3.5992l1.6863-1.4052a6.4092,6.4092,0,1,0,1.332,2.81L82.0081,7.5Z"/>
        <polygon points="83.639 5.305 83.639 5.306 83.64 5.305 83.639 5.305"/>
        <path d="M81.3773,5.3055A4.2308,4.2308,0,0,1,81.4646,7.5h.5435l1.6311-2.1943v0Z"/>
        <path d="M77.29,5.3055V7.5h4.1751a4.2308,4.2308,0,0,0-.0873-2.1947H77.29Z"/>
        <path d="M84.7515,12.6578H93.86v-2.085s-7.023.2195-7.023,0V7.5h4.8283V5.3055H86.8365V2.4524H93.86V.3674h-9.108Z"/>
        <path d="M94.9569.1479v12.51h2.1947V5.086c0,.11,3.0726,3.1823,3.0726,3.1823l3.1823-3.292v7.6815h2.1947V.1479l-5.377,5.4868Z"/>
        <path d="M106.6986,12.6578h9.108v-2.085s-7.0231.2195-7.0231,0V7.5h4.8284V5.3055h-4.8284V2.4524h7.0231V.3674h-9.108Z"/>
        <polygon points="124.695 0.367 124.695 7.939 116.904 0.148 116.904 12.658 119.208 12.658 119.208 5.196 126.89 12.877 126.89 2.562 130.401 2.562 130.401 12.658 132.596 12.658 132.596 2.562 135.998 2.562 135.998 0.367 124.695 0.367"/>
      </g>
</svg>
