<svg xmlns="http://www.w3.org/2000/svg" viewBox="0 0 137 42" preserveAspectRatio="xMinYMin meet">
      <rect id="Background" fill="white" width="137" height="42"/>
      <g id="The_Passage" data-name="The Passage">
        <polygon points="37.132 0.148 37.132 1.552 38.791 1.552 38.791 9.977 40.196 9.977 40.196 1.552 41.855 1.552 41.855 0.148 37.132 0.148"/>
        <polygon points="43.515 0.148 43.515 9.977 45.047 9.977 45.047 5.509 46.961 5.509 46.961 9.977 48.493 9.977 48.493 0.148 46.961 0.148 46.961 4.233 45.047 4.233 45.047 0.148 43.515 0.148"/>
        <polygon points="50.408 0.148 50.408 9.977 54.493 9.977 54.493 8.701 51.812 8.701 51.812 5.637 53.982 5.637 53.982 4.488 51.812 4.488 51.812 1.552 54.493 1.552 54.493 0.148 50.408 0.148"/>
        <path d="M9.4308,13.6794H1.1333V32.7H3.9417V25.8066H8.7926a1.5368,1.5368,0,0,0,1.6595-1.5319v-8.68S10.58,13.6794,9.4308,13.6794ZM7.7713,23.0621a.4467.4467,0,0,1-.4467.4467H3.9417V15.7857H7.3285a.4429.4429,0,0,1,.4428.4428Z"/>
        <path d="M19.6432,13.6794H16.8348L13.0052,32.7h2.6807l.766-3.5744h3.702L20.6645,32.7h2.936ZM16.8348,26.7s1.2766-8.17,1.4042-8.2976L19.7709,26.7Z"/>
        <path d="M27.1749,26.4449v4.9483A1.3068,1.3068,0,0,0,28.4817,32.7h6.702a1.0579,1.0579,0,0,0,1.0547-1.0548v-5.58a.9193.9193,0,0,0-.276-.6566l-5.9791-5.8571V15.85h3.5743v3.5743h2.6808V15.0423a1.3629,1.3629,0,0,0-1.363-1.3629H28.6646a1.49,1.49,0,0,0-1.49,1.49v5.0174a.9188.9188,0,0,0,.2759.6565L33.43,26.7v3.83H29.8556V26.4449Z"/>
        <path d="M40.834,26.4449v4.9483A1.3068,1.3068,0,0,0,42.1408,32.7h6.7019a1.058,1.058,0,0,0,1.0548-1.0548v-5.58a.9193.9193,0,0,0-.276-.6566l-5.9791-5.8571V15.85h3.5743v3.5743h2.6808V15.0423a1.363,1.363,0,0,0-1.363-1.3629H42.3237a1.49,1.49,0,0,0-1.49,1.49v5.0174a.9188.9188,0,0,0,.2759.6565L47.0891,26.7v3.83H43.5147V26.4449Z"/>
        <path d="M60.3652,13.6794H57.5568L53.7271,32.7h2.6808l.7659-3.5744h3.702L61.3864,32.7h2.9361ZM57.5568,26.7s1.2765-8.17,1.4042-8.2976L60.4928,26.7Z"/>
        <path d="M67.8968,15.1191V31.5128A1.1873,1.1873,0,0,0,69.084,32.7h6.7866a1.345,1.345,0,0,0,1.345-1.3451V22.4876H72.4924V24.913h2.0425V30.53H70.5776V16.1048h3.9573v3.319h2.6807v-4.35a1.3944,1.3944,0,0,0-1.3944-1.3944H69.3366A1.44,1.44,0,0,0,67.8968,15.1191Z"/>
        <polygon points="81.811 13.679 81.811 32.7 89.726 32.7 89.726 30.402 84.62 30.402 84.62 24.147 88.96 24.147 88.96 21.849 84.62 21.849 84.62 15.977 89.726 15.977 89.726 13.679 81.811 13.679"/>
      </g>
</svg>
