<svg xmlns="http://www.w3.org/2000/svg" viewBox="0 0 137 42" preserveAspectRatio="xMinYMin meet">
      <rect id="Background" fill="white" width="137" height="42"/>
      <g id="Warehouse_13" data-name="Warehouse 13">
        <path d="M104.11.1479V21.08h31.9695V.1479ZM114.1683,5.783a3.8952,3.8952,0,0,1,3.8952-3.8952h4.75l1.5224,3.6971h-4.3437a1.0389,1.0389,0,0,0-1.0389,1.0389V7.651h-4.7846Zm-2.61,12.9051h-4.73V6.02H105.36V1.8878h6.1982Zm6.5908,0a4.2529,4.2529,0,0,1-4.2529-4.253V12.49h4.8389v1.2214A1.3885,1.3885,0,0,0,120.1238,15.1h2.6893l1.3593,3.5884Zm15.32-4.73v1.1489a3.6356,3.6356,0,0,1-3.6356,3.6356h-4.3024l-1.468-3.6971h3.598a1.1867,1.1867,0,0,0,1.1866-1.1866v-.5221a1.1729,1.1729,0,0,0-1.1729-1.1729H123.52l-1.74-3.8059h5.5642a1.0689,1.0689,0,0,0,1.0689-1.0689v-.697a1.007,1.007,0,0,0-1.007-1.007h-1.9289l-1.4137-3.6971h5.2883a3.9,3.9,0,0,1,3.9,3.9v.9387c.0543,2.8272-1.8486,3.3709-1.8486,3.3709C133.7959,10.8044,133.47,13.9579,133.47,13.9579Z"/>
        <rect x="104.1099" y="22.1678" width="31.9695" height="0.9787"/>
        <path d="M1.1333,6.2917V21.08H96.77l5.9264-7.2312V.1479H6.3528ZM86.1678,18.6881H85.12a3.247,3.247,0,0,1-3.247-3.247V14.3385h3.3166V16.024c.1087.6524.87.598.87.598a1.0409,1.0409,0,0,0,.8155-.2718l1.4136,1.9573A5.23,5.23,0,0,1,86.1678,18.6881Zm5.872-16.8h6.1981v2.12H95.1388V9.1733h3.0991v2.0661H95.1388v5.3283h3.0991v2.12H92.04Zm-5.0206.0543a3.2264,3.2264,0,0,1,3.2264,3.2264v.6883L87.0921,5.748V4.6012a.593.593,0,0,0-.593-.593h-.44L84.6455,1.9421Zm-5.201,6.5244V4.7694a3.642,3.642,0,0,1,1.74-2.5554L85.08,4.3888v2.12c.0544,1.6311.7068,1.5224.7068,1.5224L89.1038,9.5a2.3593,2.3593,0,0,1,1.1418,2.2291v3.0991c.1087,2.2292-1.0331,2.8816-1.0331,2.8816l-2.1748-2.99v-1.74c0-1.4136-.9786-1.6311-.9786-1.6311l-2.2836-.9242C81.6551,9.8258,81.8182,8.4665,81.8182,8.4665Zm-5.1651,7.9924a.3806.3806,0,0,0,.3806-.3806V1.8878h3.2622V15.2562a3.4319,3.4319,0,0,1-3.4319,3.4319h-.2109ZM71.8685,15.48V1.8878h3.0991V15.97a.5437.5437,0,0,0,.5437.5437v2.1748h-.435A3.2078,3.2078,0,0,1,71.8685,15.48ZM66.649,1.8878A3.3709,3.3709,0,0,1,70.02,5.2587h0V15.2628a2.753,2.753,0,0,1-1.1417,2.5554l-2.0117-2.7729L66.8148,4.499a.5479.5479,0,0,0-.5479-.5452h-.7053l-1.5767-2.066ZM61.647,15.6434V4.8781a3.39,3.39,0,0,1,1.468-2.3923L64.8,4.8237v11.309s.2719.4893.6525.4893H66.54L67.9,18.4706a12.1661,12.1661,0,0,1-2.0117.2175H64.6917a3.0447,3.0447,0,0,1-3.0447-3.0447ZM51.3711,1.8878h3.1534v7.34h2.0661v-7.34h3.2078v16.8H56.6449V11.2938H54.6333v7.3943H51.3711Zm-8.1012,0h6.1982v2.12H46.369V9.1733h3.0991v2.0661H46.369v5.3283h3.0991v2.12H43.27Zm-10.439,0h5.22c2.99.0543,3.1535,3.1534,3.1535,3.1534V8.14a3.328,3.328,0,0,1-1.468,2.61l2.5554,7.938H38.9747l-2.066-7.1769V9.2277h.0941a.9933.9933,0,0,0,.9933-.9932V4.5852a.6314.6314,0,0,0-.6314-.6314h-1.38V18.6881H32.8309Zm-4.0777-.0544L31.961,18.6881H28.59l-.435-3.2078h-2.12l.3262-2.0661h1.5224l-1.25-8.1555L24.6211,18.6881H21.25L24.5123,1.8334ZM17.9336,9.717l1.4136-7.8836h2.7185L19.1841,16.7851h-.3806l-.87-6.4156ZM13.04,1.8334h2.5554l2.7728,16.8547H15.8131L13.9646,7.7054,12.17,16.7308h-.2175l-.9243-5.7633ZM11.4092,18.6881H8.6907L5.646,1.8334H8.5819Z"/>
        <polygon points="1.133 23.146 95.139 23.146 96.063 22.168 1.133 22.168 1.133 23.146"/>
      </g>
</svg>
