<svg id="Background_elements" width='100%' xmlns="http://www.w3.org/2000/svg" xmlns:xlink="http://www.w3.org/1999/xlink"
     viewBox="0 0 1821.4892 4007.4703" preserveAspectRatio="xMidYMid slice">
  <defs>
    <linearGradient id="linear-gradient" x1="-861.7969" y1="849.4964" x2="-111.6894" y2="849.4964"
                    gradientTransform="translate(19.1827 618.8692) rotate(-45)" gradientUnits="userSpaceOnUse">
      <stop offset="0" stop-color="#17defe"/>
      <stop offset="1" stop-color="#1050ca"/>
    </linearGradient>
    <linearGradient id="linear-gradient-2" x1="-1755.9638" y1="2553.5369" x2="-1005.8563" y2="2553.5369"
                    xlink:href="#linear-gradient"/>
    <linearGradient id="New_Gradient_Swatch_8" x1="-98.6828" y1="1827.3955" x2="241.1717" y2="1827.3955"
                    gradientTransform="translate(19.1827 618.8692) rotate(-45)" gradientUnits="userSpaceOnUse">
      <stop offset="0" stop-color="#ff46f2"/>
      <stop offset="1" stop-color="#17defe"/>
    </linearGradient>
    <linearGradient id="linear-gradient-3" x1="274.1423" y1="62.8669" x2="719.4709" y2="62.8669"
                    xlink:href="#linear-gradient"/>
    <linearGradient id="linear-gradient-4" x1="-1963.725" y1="2272.3068" x2="-1518.3964" y2="2272.3068"
                    xlink:href="#linear-gradient"/>
    <linearGradient id="linear-gradient-5" x1="-520.7445" y1="2207.9519" x2="-75.4159" y2="2207.9519"
                    xlink:href="#linear-gradient"/>
    <linearGradient id="linear-gradient-6" x1="-91.4504" y1="304.673" x2="464.4177" y2="304.673"
                    gradientTransform="translate(19.1827 618.8692) rotate(-45)" gradientUnits="userSpaceOnUse">
      <stop offset="0" stop-color="#ff382e"/>
      <stop offset="1" stop-color="#ff46f2"/>
    </linearGradient>
    <linearGradient id="linear-gradient-7" x1="-192.851" y1="1378.5653" x2="112.0008" y2="1378.5653"
                    gradientTransform="translate(19.1827 618.8692) rotate(-45)" gradientUnits="userSpaceOnUse">
      <stop offset="0" stop-color="#f09b45"/>
      <stop offset="1" stop-color="#ff382e"/>
    </linearGradient>
    <linearGradient id="linear-gradient-8" x1="1086.4153" y1="662.3795" x2="1391.2687" y2="662.3795"
                    xlink:href="#linear-gradient-7"/>
    <linearGradient id="linear-gradient-9" x1="-1339.7656" y1="2869.7536" x2="-1034.9122" y2="2869.7536"
                    xlink:href="#linear-gradient-7"/>
    <linearGradient id="linear-gradient-10" x1="-1347.7495" y1="2028.8073" x2="-708.596" y2="2028.8073"
                    gradientTransform="translate(19.1827 618.8692) rotate(-45)" gradientUnits="userSpaceOnUse">
      <stop offset="0" stop-color="#f9dc5a"/>
      <stop offset="1" stop-color="#f09b45"/>
    </linearGradient>
    <linearGradient id="linear-gradient-11" x1="1092.1009" y1="3125.3446" x2="1512.5112" y2="3125.3446"
                    gradientTransform="matrix(1, 0, 0, 1, 0, 0)" xlink:href="#linear-gradient"/>
    <linearGradient id="New_Gradient_Swatch_8-2" x1="273.0737" y1="1765.5397" x2="693.4839" y2="1765.5397"
                    gradientTransform="matrix(1, 0, 0, 1, 0, 0)" xlink:href="#New_Gradient_Swatch_8"/>
    <linearGradient id="linear-gradient-12" x1="56.221" y1="731.4594" x2="476.633" y2="731.4594"
                    gradientTransform="matrix(1, 0, 0, 1, 0, 0)" xlink:href="#linear-gradient-10"/>
    <linearGradient id="linear-gradient-13" x1="616.7613" y1="3351.2612" x2="1037.1733" y2="3351.2612"
                    gradientTransform="matrix(1, 0, 0, 1, 0, 0)" xlink:href="#linear-gradient-10"/>
    <linearGradient id="linear-gradient-14" x1="1041.3446" y1="2580.0241" x2="1461.7565" y2="2580.0241"
                    gradientTransform="matrix(1, 0, 0, 1, 0, 0)" xlink:href="#linear-gradient-10"/>
    <linearGradient id="linear-gradient-15" x1="290.1451" y1="2523.0634" x2="710.557" y2="2523.0634"
                    gradientTransform="matrix(1, 0, 0, 1, 0, 0)" xlink:href="#linear-gradient-10"/>
    <linearGradient id="linear-gradient-16" x1="731.1451" y1="2025.5634" x2="912.557" y2="2025.5634"
                    gradientTransform="matrix(1, 0, 0, 1, 0, 0)" xlink:href="#linear-gradient-10"/>
    <linearGradient id="linear-gradient-17" x1="1113.2073" y1="2815.5517" x2="1419.6013" y2="2815.5517"
                    gradientTransform="matrix(1, 0, 0, 1, 0, 0)" xlink:href="#linear-gradient-6"/>
    <linearGradient id="linear-gradient-18" x1="1193.7357" y1="1941.7439" x2="1500.1297" y2="1941.7439"
                    gradientTransform="matrix(1, 0, 0, 1, 0, 0)" xlink:href="#linear-gradient-6"/>
    <linearGradient id="linear-gradient-19" x1="1090.489" y1="1522.0021" x2="1510.8972" y2="1522.0021"
                    gradientTransform="matrix(1, 0, 0, 1, 0, 0)" xlink:href="#linear-gradient-6"/>
    <linearGradient id="linear-gradient-20" x1="1297.473" y1="1897.1469" x2="1717.8812" y2="1897.1469"
                    gradientTransform="matrix(1, 0, 0, 1, 0, 0)" xlink:href="#linear-gradient-6"/>
    <linearGradient id="linear-gradient-21" x1="1283.4588" y1="1208.9487" x2="1496.7262" y2="1208.9487"
                    gradientTransform="matrix(1, 0, 0, 1, 0, 0)" xlink:href="#linear-gradient-10"/>
    <linearGradient id="linear-gradient-22" x1="1314.3691" y1="245.2772" x2="1734.7795" y2="245.2772"
                    gradientTransform="matrix(1, 0, 0, 1, 0, 0)" xlink:href="#linear-gradient"/>
    <linearGradient id="linear-gradient-23" x1="798.7828" y1="106.135" x2="1031.481" y2="106.135"
                    gradientTransform="matrix(1, 0, 0, 1, 0, 0)" xlink:href="#linear-gradient-10"/>
    <linearGradient id="New_Gradient_Swatch_8-3" x1="1037.3644" y1="146.0455" x2="1374.8485" y2="146.0455"
                    gradientTransform="matrix(1, 0, 0, 1, 0, 0)" xlink:href="#New_Gradient_Swatch_8"/>
    <linearGradient id="linear-gradient-24" x1="1072.1042" y1="95.7635" x2="1284.0591" y2="95.7635"
                    gradientTransform="matrix(1, 0, 0, 1, 0, 0)" xlink:href="#linear-gradient"/>
    <linearGradient id="linear-gradient-25" x1="493.9035" y1="3746.7884" x2="1015.2701" y2="3746.7884"
                    gradientTransform="matrix(1, 0, 0, 1, 0, 0)" xlink:href="#linear-gradient-6"/>
    <linearGradient id="New_Gradient_Swatch_8-4" x1="1166.5037" y1="3687.2779" x2="1586.9139" y2="3687.2779"
                    gradientTransform="matrix(1, 0, 0, 1, 0, 0)" xlink:href="#New_Gradient_Swatch_8"/>
    <linearGradient id="linear-gradient-26" x1="599.0359" y1="3778.1726" x2="989.4478" y2="3778.1726"
                    gradientTransform="matrix(1, 0, 0, 1, 0, 0)" xlink:href="#linear-gradient-10"/>
    <linearGradient id="linear-gradient-27" x1="-635.2207" y1="2613.3987" x2="-79.3526" y2="2613.3987"
                    xlink:href="#linear-gradient-6"/>
    <linearGradient id="linear-gradient-28" x1="1304.221" y1="2748.4594" x2="1724.633" y2="2748.4594"
                    gradientTransform="matrix(1, 0, 0, 1, 0, 0)" xlink:href="#linear-gradient-10"/>
  </defs>
  <title>20190601_SN.com_layout</title>
  <g>
    <path
      d="M540.8855,1349.1323,61.0894,1828.922a35.7823,35.7823,0,0,1-50.607-50.6005l479.7961-479.7983a35.7853,35.7853,0,1,1,50.607,50.6091Z"
      opacity="0.5" fill="url(#linear-gradient)"/>
    <path
      d="M1113.5471,3186.3248l-479.7961,479.79a35.7823,35.7823,0,0,1-50.6071-50.6006L1062.94,3135.7156a35.7853,35.7853,0,0,1,50.607,50.6092Z"
      opacity="0.5" fill="url(#linear-gradient-2)"/>
    <path
      d="M1481.867,1791.0977,1292.16,1980.7967a35.7838,35.7838,0,0,1-50.607-50.6049l189.7093-189.7033a35.7846,35.7846,0,1,1,50.6048,50.6092Z"
      fill="url(#New_Gradient_Swatch_8)"/>
    <path
      d="M572.3726,205.1925,308.088,469.4776a35.7846,35.7846,0,0,1-50.6048-50.6092l264.2846-264.285a35.7845,35.7845,0,1,1,50.6048,50.6091Z"
      opacity="0.5" fill="url(#linear-gradient-3)"/>
    <path
      d="M552.2716,3349.8834,287.9869,3614.1685a35.7846,35.7846,0,1,1-50.6048-50.6092l264.2847-264.285a35.7845,35.7845,0,1,1,50.6048,50.6091Z"
      opacity="0.5" fill="url(#linear-gradient-4)"/>
    <path
      d="M1527.0977,2284.0465l-264.2846,264.2851a35.7846,35.7846,0,0,1-50.6048-50.6092l264.2846-264.285a35.7845,35.7845,0,1,1,50.6048,50.6091Z"
      fill="url(#linear-gradient-5)"/>
    <path
      d="M563.0069,556.523,220.5593,898.968a35.7853,35.7853,0,0,1-50.607-50.6092L512.4,505.9139a35.7853,35.7853,0,0,1,50.6071,50.6091Z"
      fill="url(#linear-gradient-6)"/>
    <polygon
      points="592.593 1868.746 586.437 1862.584 560.225 1888.796 534.013 1862.584 527.858 1868.746 554.066 1894.955 527.858 1921.163 534.013 1927.326 560.225 1901.114 586.437 1927.326 592.593 1921.163 566.384 1894.955 592.593 1868.746"
      fill="#1d2423" opacity="0.3"/>
    <g opacity="0.3">
      <polygon
        points="1157.12 3157.432 1099.821 3112.534 1042.508 3157.432 985.18 3112.534 927.869 3157.432 870.516 3112.534 816.472 3154.84 809.855 3146.389 870.516 3098.903 927.865 3143.797 985.18 3098.899 1042.508 3143.797 1099.821 3098.899 1157.12 3143.797 1214.426 3098.899 1275.052 3146.389 1268.433 3154.84 1214.426 3112.534 1157.12 3157.432"
        fill="#1b1464"/>
      <polygon
        points="1157.12 3203.089 1099.821 3158.187 1042.508 3203.089 985.18 3158.187 927.869 3203.089 870.516 3158.187 816.472 3200.492 809.855 3192.046 870.516 3144.551 927.865 3189.449 985.18 3144.551 1042.508 3189.449 1099.821 3144.551 1157.12 3189.449 1214.426 3144.551 1275.052 3192.046 1268.433 3200.492 1214.426 3158.187 1157.12 3203.089"
        fill="#1b1464"/>
    </g>
    <path
      d="M1073.1637,1559.8536,902.997,1730.02a32.1014,32.1014,0,0,1-45.3931-45.4035l170.1667-170.1581a32.0984,32.0984,0,1,1,45.3931,45.3949Z"
      fill="url(#linear-gradient-7)"/>
    <path
      d="M1471.3172,148.869,1301.1488,319.0336a32.0993,32.0993,0,0,1-45.3932-45.3974l170.1667-170.1646a32.1,32.1,0,0,1,45.3949,45.3974Z"
      fill="url(#linear-gradient-8)"/>
    <path
      d="M1316.5989,3425.2558,1146.4305,3595.42a32.0993,32.0993,0,0,1-45.3932-45.3974l170.1668-170.1646a32.1,32.1,0,0,1,45.3948,45.3975Z"
      fill="url(#linear-gradient-9)"/>
    <path
      d="M952.7053,2599.8813,546.1525,3006.4337a32.0984,32.0984,0,1,1-45.3927-45.3953l406.548-406.55a32.0993,32.0993,0,1,1,45.3975,45.3931Z"
      fill="url(#linear-gradient-10)"/>
    <path
      d="M1106.5465,3335.5488a14.4448,14.4448,0,0,1-10.2128-24.6576l391.5158-391.518a14.4433,14.4433,0,0,1,20.4257,20.4261L1116.76,3331.3169A14.384,14.384,0,0,1,1106.5465,3335.5488Z"
      fill="url(#linear-gradient-11)"/>
    <path
      d="M287.5186,1975.7464a14.4448,14.4448,0,0,1-10.215-24.6576l391.5219-391.52a14.4431,14.4431,0,1,1,20.4256,20.4257l-391.5176,391.52A14.4258,14.4258,0,0,1,287.5186,1975.7464Z"
      fill="url(#New_Gradient_Swatch_8-2)"/>
    <path
      d="M70.6652,941.6636A14.4448,14.4448,0,0,1,60.4523,917.006L451.9742,525.4818A14.4454,14.4454,0,0,1,472.4,545.9139L80.88,937.4316A14.3967,14.3967,0,0,1,70.6652,941.6636Z"
      opacity="0.5" fill="url(#linear-gradient-12)"/>
    <path
      d="M631.2054,3561.4653a14.4448,14.4448,0,0,1-10.2128-24.6576l391.5219-391.5241a14.4453,14.4453,0,0,1,20.4256,20.432L641.42,3557.2334A14.3967,14.3967,0,0,1,631.2054,3561.4653Z"
      opacity="0.5" fill="url(#linear-gradient-13)"/>
    <path
      d="M1055.7887,2790.2283a14.4448,14.4448,0,0,1-10.2128-24.6576l391.5218-391.5242a14.4454,14.4454,0,1,1,20.4257,20.4321l-391.52,391.5177A14.3964,14.3964,0,0,1,1055.7887,2790.2283Z"
      fill="url(#linear-gradient-14)"/>
    <path
      d="M304.5892,2733.2676a14.4448,14.4448,0,0,1-10.2128-24.6576l391.5219-391.5242a14.4454,14.4454,0,0,1,20.4256,20.4321l-391.52,391.5177A14.3964,14.3964,0,0,1,304.5892,2733.2676Z"
      fill="url(#linear-gradient-15)"/>
    <path
      d="M745.5892,2116.2676a14.4448,14.4448,0,0,1-10.2128-24.6576l152.5219-152.5242a14.4454,14.4454,0,0,1,20.4256,20.4321l-152.52,152.5177A14.3964,14.3964,0,0,1,745.5892,2116.2676Z"
      fill="url(#linear-gradient-16)"/>
    <path
      d="M1123.7343,2969.5988a10.4647,10.4647,0,0,1-7.4431-3.0982,10.626,10.626,0,0,1,0-14.97l285.34-286.9256a10.4857,10.4857,0,0,1,14.8862,0,10.6267,10.6267,0,0,1,0,14.9706l-285.34,286.9255A10.46,10.46,0,0,1,1123.7343,2969.5988Z"
      opacity="0.5" fill="url(#linear-gradient-17)"/>
    <path
      d="M1204.2627,2095.791a10.4641,10.4641,0,0,1-7.443-3.0983,10.626,10.626,0,0,1,0-14.97l285.34-286.9255a10.4856,10.4856,0,0,1,14.8861,0,10.6265,10.6265,0,0,1,0,14.97l-285.34,286.9255A10.46,10.46,0,0,1,1204.2627,2095.791Z"
      opacity="0.5" fill="url(#linear-gradient-18)"/>
    <path
      d="M1104.9347,1732.2055a14.4446,14.4446,0,0,1-10.2129-24.6576l391.5137-391.52a14.4431,14.4431,0,1,1,20.4257,20.4256l-391.5137,391.52A14.3853,14.3853,0,0,1,1104.9347,1732.2055Z"
      fill="url(#linear-gradient-19)"/>
    <path
      d="M1311.9186,2107.35a14.4446,14.4446,0,0,1-10.2128-24.6576l391.5137-391.52a14.4431,14.4431,0,0,1,20.4256,20.4256l-391.5136,391.52A14.3857,14.3857,0,0,1,1311.9186,2107.35Z"
      fill="url(#linear-gradient-20)"/>
    <path
      d="M1338.1833,1315.5842a54.7229,54.7229,0,0,1-38.6954-93.42l103.821-103.8231a54.7237,54.7237,0,0,1,77.3869,77.395l-103.815,103.8232A54.5414,54.5414,0,0,1,1338.1833,1315.5842Z"
      fill="url(#linear-gradient-21)"/>
    <path
      d="M1365.5567,583.5849A65.8043,65.8043,0,0,1,1319.028,471.25l124.8388-124.8366a65.802,65.802,0,1,1,93.054,93.0621L1412.09,564.3117A65.5936,65.5936,0,0,1,1365.5567,583.5849Z"
      fill="#ed1c24"/>
    <path
      d="M1328.8148,455.4815a14.4448,14.4448,0,0,1-10.2129-24.6576l391.5159-391.518a14.4432,14.4432,0,0,1,20.4256,20.426L1339.028,451.25A14.3838,14.3838,0,0,1,1328.8148,455.4815Z"
      fill="url(#linear-gradient-22)"/>
    <path
      d="M639.4932,2159.082a65.8044,65.8044,0,0,1-46.5287-112.3354L717.8033,1921.91a65.802,65.802,0,1,1,93.054,93.0622L686.0267,2139.8087A65.5937,65.5937,0,0,1,639.4932,2159.082Z"
      fill="#ed1c24"/>
    <g opacity="0.1">
      <rect x="1211.8083" y="1437.4155" width="83.0767" height="9.6282"
            transform="translate(-652.7809 1309.6339) rotate(-45.029)" fill="#1d2423"/>
      <rect x="1248.5304" y="1400.6909" width="9.6273" height="83.0773"
            transform="translate(-652.7187 1308.7303) rotate(-45.0019)" fill="#1d2423"/>
    </g>
    <path d="M592.6216,1191.1616H490.9734l50.8241-88.0338Zm-84.9716-9.6271h68.2949L541.7975,1122.39Z" fill="#1d2423"
          opacity="0.3"/>
    <path d="M589.5879,3152.9488H487.94l50.8241-88.0339Zm-84.9716-9.6272h68.295l-34.1475-59.1443Z" fill="#1d2423"
          opacity="0.3"/>
    <g opacity="0.2">
      <polygon
        points="1511.619 995.554 1458.979 955.276 1406.33 995.554 1353.655 955.276 1301.001 995.554 1248.31 955.276 1198.544 993.312 1192.694 985.666 1248.31 943.154 1301.001 983.424 1353.655 943.154 1406.33 983.424 1458.979 943.154 1511.619 983.424 1564.273 943.154 1619.851 985.666 1614.001 993.312 1564.273 955.276 1511.619 995.554"
        fill="#1d2423"/>
      <polygon
        points="1511.619 1036.507 1458.979 996.229 1406.33 1036.507 1353.655 996.229 1301.001 1036.507 1248.31 996.229 1198.544 1034.265 1192.694 1026.619 1248.31 984.107 1301.001 1024.377 1353.655 984.107 1406.33 1024.377 1458.979 984.107 1511.619 1024.377 1564.273 984.107 1619.851 1026.619 1614.001 1034.265 1564.273 996.229 1511.619 1036.507"
        fill="#1d2423"/>
      <polygon
        points="1511.619 1081.447 1458.979 1041.169 1406.33 1081.447 1353.655 1041.169 1301.001 1081.447 1248.31 1041.169 1198.544 1079.205 1192.694 1071.559 1248.31 1029.047 1301.001 1069.317 1353.655 1029.047 1406.33 1069.317 1458.979 1029.047 1511.619 1069.317 1564.273 1029.047 1619.851 1071.559 1614.001 1079.205 1564.273 1041.169 1511.619 1081.447"
        fill="#1d2423"/>
    </g>
    <g opacity="0.3">
      <polygon
        points="1220.385 2152.402 1167.744 2112.124 1115.095 2152.402 1062.421 2112.124 1009.767 2152.402 957.076 2112.124 907.31 2150.16 901.459 2142.514 957.076 2100.002 1009.767 2140.272 1062.421 2100.002 1115.095 2140.272 1167.744 2100.002 1220.385 2140.272 1273.038 2100.002 1328.617 2142.514 1322.767 2150.16 1273.038 2112.124 1220.385 2152.402"
        fill="#1d2423"/>
      <polygon
        points="1220.385 2193.355 1167.744 2153.077 1115.095 2193.355 1062.421 2153.077 1009.767 2193.355 957.076 2153.077 907.31 2191.113 901.459 2183.467 957.076 2140.954 1009.767 2181.224 1062.421 2140.954 1115.095 2181.224 1167.744 2140.954 1220.385 2181.224 1273.038 2140.954 1328.617 2183.467 1322.767 2191.113 1273.038 2153.077 1220.385 2193.355"
        fill="#1d2423"/>
      <polygon
        points="1220.385 2238.295 1167.744 2198.017 1115.095 2238.295 1062.421 2198.017 1009.767 2238.295 957.076 2198.017 907.31 2236.052 901.459 2228.406 957.076 2185.894 1009.767 2226.164 1062.421 2185.894 1115.095 2226.164 1167.744 2185.894 1220.385 2226.164 1273.038 2185.894 1328.617 2228.406 1322.767 2236.052 1273.038 2198.017 1220.385 2238.295"
        fill="#1d2423"/>
    </g>
    <path
      d="M345.9438,3088.5981a65.8044,65.8044,0,0,1-46.5287-112.3354L424.2538,2851.426a65.802,65.802,0,1,1,93.054,93.0622L392.4772,3069.3248A65.5936,65.5936,0,0,1,345.9438,3088.5981Z"
      fill="#ed1c24"/>
  </g>
  <polygon
    points="959.116 2273.352 914.116 2294.375 869.116 2273.352 869.116 2248.125 914.116 2269.148 959.116 2248.125 959.116 2273.352"
    fill="#f0f" opacity="0.05"/>
  <polygon
    points="959.287 3091.352 914.287 3112.375 869.287 3091.352 869.287 3066.125 914.287 3087.148 959.287 3066.125 959.287 3091.352"
    fill="#f0f" opacity="0.05"/>
  <path d="M990.6254,0,803.0141,187.6124a14.4439,14.4439,0,1,0,20.4278,20.4256L1031.481,0Z" opacity="0.5"
        fill="url(#linear-gradient-23)"/>
  <path d="M1284.06,0,1046.766,237.2942a32.0985,32.0985,0,0,0,45.3931,45.3953L1374.8485,0Z" opacity="0.5"
        fill="url(#New_Gradient_Swatch_8-3)"/>
  <path d="M1243.2075,0,1076.34,166.8682a14.4433,14.4433,0,0,0,20.4257,20.426L1284.0591,0Z"
        fill="url(#linear-gradient-24)"/>
  <path
    d="M1004.7891,3547.195l-449.7962,449.79a35.7823,35.7823,0,0,1-50.607-50.6005L954.182,3496.5858a35.7854,35.7854,0,0,1,50.6071,50.6092Z"
    fill="url(#linear-gradient-25)"/>
  <path
    d="M1180.9486,3897.4846a14.4448,14.4448,0,0,1-10.215-24.6576l391.5219-391.52a14.4431,14.4431,0,1,1,20.4256,20.4256l-391.5176,391.52A14.4255,14.4255,0,0,1,1180.9486,3897.4846Z"
    fill="url(#New_Gradient_Swatch_8-4)"/>
  <path
    d="M613.48,3973.3768a14.4448,14.4448,0,0,1-10.2128-24.6576L964.7891,3587.195a14.4454,14.4454,0,0,1,20.4256,20.4321l-361.52,361.5177A14.3964,14.3964,0,0,1,613.48,3973.3768Z"
    fill="url(#linear-gradient-26)"/>
  <path
    d="M1811.0069,2573.523l-342.4476,342.445a35.7853,35.7853,0,0,1-50.607-50.6092L1760.4,2522.9139a35.7853,35.7853,0,0,1,50.6071,50.6091Z"
    fill="url(#linear-gradient-27)"/>
  <path
    d="M1318.6652,2958.6636a14.4448,14.4448,0,0,1-10.2129-24.6576l391.5219-391.5242a14.4454,14.4454,0,0,1,20.4256,20.4321l-391.52,391.5177A14.3967,14.3967,0,0,1,1318.6652,2958.6636Z"
    opacity="0.5" fill="url(#linear-gradient-28)"/>
</svg>
